<?xml version="1.0" standalone="no"?>
<!DOCTYPE svg PUBLIC "-//W3C//DTD SVG 20010904//EN"
 "http://www.w3.org/TR/2001/REC-SVG-20010904/DTD/svg10.dtd">
<svg version="1.0" xmlns="http://www.w3.org/2000/svg"
 width="300.000000pt" height="300.000000pt" viewBox="0 0 300.000000 300.000000"
 preserveAspectRatio="xMidYMid meet">
<metadata>
Created by potrace 1.10, written by Peter Selinger 2001-2011
</metadata>
<g transform="translate(0.000000,300.000000) scale(0.100000,-0.100000)"
fill="#000000" stroke="none">
<path d="M885 2017 l-29 -24 25 -24 c14 -13 34 -29 45 -35 18 -10 19 -25 22
-198 4 -203 -2 -233 -40 -200 -16 15 -22 15 -43 4 -22 -12 -27 -11 -45 5 -47
43 -112 -25 -76 -79 18 -29 52 -34 81 -12 14 10 25 11 39 4 13 -7 26 -6 43 3
42 23 49 0 43 -146 -4 -113 -7 -129 -24 -139 -11 -6 -31 -22 -45 -35 l-25 -24
28 -23 c25 -22 36 -24 145 -24 105 0 121 2 145 21 21 17 24 24 15 40 -5 11
-21 24 -34 29 -38 14 -45 41 -45 164 0 105 2 116 21 129 18 13 24 13 47 0 15
-9 35 -32 44 -52 10 -20 51 -72 92 -116 42 -44 75 -87 76 -96 0 -9 -9 -36 -19
-60 -30 -69 -34 -120 -17 -189 44 -169 205 -265 391 -231 74 14 127 41 187 97
26 24 53 44 61 44 7 0 23 10 35 23 19 20 20 25 8 42 -7 11 -15 57 -18 105 -8
144 -49 211 -209 341 -54 43 -101 85 -105 92 -5 8 -2 7 9 -2 15 -12 20 -11 37
4 18 16 21 17 44 1 31 -20 60 -21 76 -1 7 8 18 15 25 15 7 0 18 -7 25 -15 17
-20 59 -19 82 2 17 15 19 15 36 0 38 -35 92 -8 92 45 0 48 -61 67 -101 32 -14
-12 -18 -12 -34 6 -23 26 -57 26 -80 0 l-18 -20 -22 20 c-26 24 -52 26 -77 3
-16 -14 -22 -14 -43 -3 -20 11 -27 11 -40 0 -13 -11 -21 -10 -50 6 -32 17 -35
17 -53 0 -11 -9 -22 -30 -26 -47 -4 -19 -12 -29 -24 -29 -21 0 -62 -35 -62
-53 0 -21 43 -63 165 -159 66 -52 128 -104 137 -114 40 -45 63 -144 34 -144
-15 0 -182 144 -212 183 -11 14 -70 80 -131 147 -109 118 -138 159 -91 126 43
-30 90 -11 100 39 2 11 12 21 23 23 33 6 62 41 69 81 7 47 43 81 93 88 53 7
96 -16 124 -66 27 -49 44 -56 70 -30 17 17 19 31 17 96 -3 70 -5 78 -30 96
-24 18 -43 21 -140 21 -100 1 -117 -2 -151 -21 -21 -13 -42 -23 -46 -23 -5 0
-11 22 -14 49 -10 87 -59 156 -141 199 -50 26 -56 27 -257 30 l-206 4 -28 -25z
m444 -33 c130 -38 191 -195 127 -329 -42 -89 -53 -95 -159 -94 -79 1 -86 2
-53 10 95 23 138 79 139 183 1 75 -15 125 -51 159 -40 38 -73 47 -173 47 l-89
0 0 -200 0 -200 -40 0 -40 0 0 184 c0 170 -1 185 -21 210 -14 17 -30 26 -49
26 -16 0 -32 5 -35 10 -11 18 382 13 444 -6z m-38 -90 c35 -32 49 -70 49 -135
0 -72 -21 -114 -72 -143 -18 -10 -50 -37 -70 -60 l-36 -41 -26 24 c-26 24 -26
25 -26 191 0 119 4 170 13 179 19 20 142 9 168 -15z m564 -137 c7 -8 14 -157
8 -157 -5 0 -15 19 -23 42 -20 57 -56 81 -127 85 -90 6 -149 -40 -160 -127 -5
-38 -8 -40 -39 -40 -40 0 -44 17 -18 78 20 49 60 90 109 114 34 16 54 18 144
14 57 -4 105 -7 106 -9z m-1052 -252 c-1 -11 4 -23 10 -27 6 -4 -3 -6 -19 -6
-27 1 -31 5 -32 30 -1 25 3 29 21 26 15 -2 21 -9 20 -23z m89 -5 c3 -20 0 -30
-9 -30 -8 0 -13 12 -13 30 0 17 4 30 9 30 5 0 11 -13 13 -30z m108 19 c0 -5
-4 -7 -10 -4 -5 3 -10 2 -10 -3 0 -6 7 -13 16 -16 19 -7 9 -26 -15 -26 -13 0
-18 8 -19 30 0 23 4 30 19 30 10 0 19 -5 19 -11z m96 -9 c9 0 12 5 9 10 -3 6
-1 10 4 10 6 0 11 -13 11 -30 0 -16 -5 -30 -11 -30 -5 0 -7 5 -4 10 3 6 0 10
-9 10 -8 0 -17 -6 -19 -12 -3 -7 -5 3 -5 22 0 19 2 29 5 23 2 -7 11 -13 19
-13z m134 -6 c6 -14 10 -27 10 -28 0 -1 -13 -3 -29 -3 -27 0 -27 2 -17 29 13
35 24 36 36 2z m118 -6 c3 -24 0 -28 -22 -28 -22 0 -26 4 -26 31 0 26 3 30 23
27 16 -2 23 -11 25 -30z m86 20 c5 -10 7 -10 12 0 10 22 24 12 24 -18 0 -30
-14 -40 -24 -17 -5 10 -7 10 -12 0 -10 -23 -24 -13 -24 17 0 30 14 40 24 18z
m226 2 c0 -5 -6 -10 -12 -11 -10 0 -10 -2 0 -6 6 -2 12 -11 12 -19 0 -17 -36
-19 -46 -2 -5 8 -1 9 12 4 15 -6 17 -5 7 5 -19 19 -16 39 7 39 11 0 20 -4 20
-10z m80 -20 c0 -16 -4 -30 -10 -30 -5 0 -10 14 -10 30 0 17 5 30 10 30 6 0
10 -13 10 -30z m97 13 c14 -17 14 -17 9 0 -3 9 -1 17 4 17 6 0 10 -13 10 -30
0 -33 -14 -39 -29 -12 -10 16 -10 16 -11 0 0 -10 -4 -18 -8 -18 -5 0 -7 14 -4
30 5 35 9 37 29 13z m143 7 c0 -5 -9 -10 -20 -10 -21 0 -27 -15 -10 -25 6 -3
10 -1 10 4 0 6 5 11 10 11 6 0 10 -7 10 -15 0 -21 -46 -19 -54 1 -4 9 -1 23 5
30 13 16 49 19 49 4z m93 -2 c4 -10 8 -9 16 2 8 12 11 7 11 -20 0 -27 -3 -32
-11 -20 -8 11 -12 12 -16 3 -9 -24 -23 -13 -23 17 0 30 14 41 23 18z m-1003
-212 c0 -110 2 -126 21 -150 14 -17 30 -26 50 -26 16 0 29 -4 29 -10 0 -6 -55
-10 -146 -10 -94 0 -143 4 -139 10 3 6 19 10 35 10 19 0 35 9 49 26 19 24 21
40 21 150 l0 124 40 0 40 0 0 -124z m397 -8 c216 -237 386 -388 411 -363 4 3
7 39 7 78 0 108 -25 143 -192 275 -75 59 -146 115 -157 124 -20 17 -19 17 51
18 l71 0 111 -88 c126 -101 172 -154 196 -230 17 -52 17 -145 0 -184 -6 -15
-2 -18 24 -18 43 0 39 -18 -6 -26 -25 -5 -52 -22 -84 -55 -60 -60 -126 -83
-229 -83 -89 1 -156 26 -213 82 -40 39 -77 123 -77 176 0 46 26 128 51 160
l21 27 -69 76 c-37 42 -85 96 -106 120 l-39 43 55 0 54 0 120 -132z"/>
<path d="M1441 1131 c-30 -70 -29 -163 2 -222 63 -121 238 -154 362 -69 47 33
57 50 28 50 -30 0 -124 49 -173 88 -55 45 -90 80 -151 150 l-46 53 -22 -50z
m128 -123 c48 -46 108 -94 134 -108 69 -37 64 -52 -26 -65 -77 -12 -169 32
-202 95 -22 43 -20 160 3 160 2 0 43 -37 91 -82z"/>
</g>
</svg>
