<?xml version="1.0" encoding="utf-8" ?>
<svg baseProfile="tiny" height="500px" version="1.2" width="500px" xmlns="http://www.w3.org/2000/svg" xmlns:ev="http://www.w3.org/2001/xml-events" xmlns:xlink="http://www.w3.org/1999/xlink"><defs /><path d="M 206,262 L 212,268 L 212,269 L 222,279 L 222,280 L 231,289 L 231,290 L 240,299 L 240,300 L 241,301 L 240,302 L 240,303 L 237,306 L 237,307 L 236,308 L 236,309 L 235,310 L 235,311 L 234,312 L 234,313 L 233,314 L 233,316 L 232,317 L 232,319 L 231,320 L 231,324 L 230,325 L 230,338 L 231,339 L 231,343 L 232,344 L 232,346 L 233,347 L 233,349 L 234,350 L 234,351 L 235,352 L 235,353 L 236,354 L 236,355 L 238,357 L 238,358 L 245,365 L 246,365 L 249,368 L 250,368 L 251,369 L 252,369 L 253,370 L 254,370 L 255,371 L 256,371 L 257,372 L 259,372 L 260,373 L 262,373 L 263,374 L 267,374 L 268,375 L 290,375 L 291,374 L 295,374 L 296,373 L 298,373 L 299,372 L 301,372 L 302,371 L 303,371 L 304,370 L 305,370 L 306,369 L 307,369 L 308,368 L 309,368 L 312,365 L 313,365 L 320,358 L 320,357 L 324,353 L 325,353 L 326,352 L 332,352 L 333,351 L 336,351 L 336,348 L 335,348 L 334,349 L 327,349 L 326,348 L 326,347 L 327,346 L 327,344 L 328,343 L 328,341 L 329,340 L 329,333 L 330,332 L 330,327 L 329,326 L 329,319 L 328,318 L 328,315 L 327,314 L 327,312 L 326,311 L 326,310 L 325,309 L 325,307 L 324,306 L 324,305 L 322,303 L 322,302 L 321,301 L 321,300 L 318,297 L 318,296 L 308,286 L 307,286 L 303,282 L 302,282 L 299,279 L 298,279 L 294,275 L 293,275 L 289,271 L 288,271 L 284,267 L 283,267 L 280,264 L 279,264 L 277,262 L 253,262 L 256,265 L 257,265 L 261,269 L 262,269 L 266,273 L 267,273 L 271,277 L 272,277 L 276,281 L 277,281 L 280,284 L 281,284 L 285,288 L 286,288 L 290,292 L 291,292 L 295,296 L 296,296 L 307,307 L 307,308 L 309,310 L 309,311 L 310,312 L 310,313 L 311,314 L 311,315 L 312,316 L 312,317 L 313,318 L 313,320 L 314,321 L 314,325 L 315,326 L 315,334 L 314,335 L 314,339 L 313,340 L 313,343 L 312,344 L 310,344 L 309,343 L 308,343 L 307,342 L 306,342 L 305,341 L 304,341 L 302,339 L 301,339 L 299,337 L 298,337 L 294,333 L 293,333 L 287,327 L 286,327 L 263,304 L 263,303 L 250,290 L 250,289 L 239,278 L 239,277 L 230,268 L 230,267 L 225,262 Z" fill="white" /><path d="M 164,262 L 164,302 L 163,303 L 163,304 L 162,305 L 162,306 L 157,311 L 156,311 L 155,312 L 148,312 L 148,314 L 194,314 L 194,312 L 188,312 L 187,311 L 186,311 L 185,310 L 184,310 L 180,306 L 180,305 L 179,304 L 179,303 L 178,302 L 178,262 Z" fill="white" /><path d="M 341,245 L 341,254 L 343,254 L 343,251 L 344,250 L 347,250 L 348,251 L 348,254 L 349,254 L 349,245 L 348,245 L 348,248 L 347,249 L 344,249 L 343,248 L 343,245 Z" fill="white" /><path d="M 323,245 L 321,247 L 321,253 L 322,254 L 323,254 L 324,255 L 326,255 L 327,254 L 330,254 L 330,250 L 326,250 L 326,251 L 327,252 L 326,253 L 325,253 L 323,251 L 323,248 L 324,247 L 327,247 L 328,248 L 329,247 L 329,246 L 328,245 Z" fill="white" /><path d="M 301,245 L 301,254 L 303,254 L 303,251 L 304,250 L 306,252 L 306,253 L 307,254 L 309,254 L 309,245 L 307,245 L 307,248 L 306,249 L 304,247 L 304,246 L 303,245 Z" fill="white" /><path d="M 287,245 L 287,254 L 289,254 L 289,245 Z" fill="white" /><path d="M 271,245 L 269,247 L 269,249 L 270,250 L 270,251 L 269,252 L 269,253 L 270,254 L 271,254 L 272,255 L 273,255 L 274,254 L 275,254 L 276,253 L 276,250 L 275,250 L 274,249 L 275,248 L 276,248 L 276,246 L 275,245 Z" fill="white" /><path d="M 236,245 L 236,254 L 238,254 L 238,251 L 239,250 L 241,250 L 242,251 L 242,254 L 244,254 L 244,245 L 242,245 L 242,248 L 241,249 L 239,249 L 238,248 L 238,245 Z" fill="white" /><path d="M 217,245 L 217,254 L 223,254 L 224,253 L 224,246 L 223,245 Z" fill="white" /><path d="M 201,245 L 200,246 L 200,247 L 199,248 L 199,250 L 198,251 L 198,252 L 197,253 L 197,254 L 199,254 L 199,253 L 200,252 L 203,252 L 204,253 L 204,254 L 206,254 L 206,253 L 205,252 L 205,250 L 204,249 L 204,248 L 203,247 L 203,245 Z" fill="white" /><path d="M 178,245 L 178,254 L 180,254 L 180,251 L 181,250 L 183,250 L 184,251 L 184,254 L 186,254 L 186,245 L 184,245 L 184,248 L 183,249 L 181,249 L 180,248 L 180,245 Z" fill="white" /><path d="M 161,245 L 160,246 L 160,249 L 161,250 L 161,251 L 160,252 L 159,252 L 160,253 L 160,254 L 161,254 L 162,255 L 164,255 L 165,254 L 166,254 L 166,250 L 165,249 L 166,248 L 166,246 L 165,245 Z" fill="white" /><path d="M 146,245 L 146,254 L 148,254 L 148,245 Z" fill="white" /><path d="M 127,245 L 127,254 L 129,254 L 129,253 L 130,252 L 133,255 L 135,255 L 135,253 L 134,253 L 132,251 L 134,249 L 134,246 L 133,246 L 132,245 Z" fill="white" /><path d="M 279,204 L 278,205 L 273,205 L 272,206 L 269,206 L 268,207 L 267,207 L 266,208 L 265,208 L 264,209 L 263,209 L 262,210 L 261,210 L 252,219 L 252,220 L 251,221 L 251,222 L 250,223 L 250,224 L 249,225 L 249,226 L 248,227 L 248,229 L 247,230 L 247,234 L 246,235 L 246,239 L 258,239 L 258,231 L 259,230 L 259,227 L 260,226 L 260,225 L 261,224 L 261,223 L 263,221 L 263,220 L 267,216 L 268,216 L 270,214 L 271,214 L 272,213 L 273,213 L 274,212 L 276,212 L 277,211 L 290,211 L 291,212 L 293,212 L 294,213 L 295,213 L 296,214 L 297,214 L 299,216 L 300,216 L 304,220 L 304,221 L 306,223 L 306,224 L 307,225 L 307,228 L 308,229 L 308,232 L 310,232 L 310,206 L 297,206 L 296,205 L 288,205 L 287,204 Z" fill="white" /><path d="M 148,166 L 148,168 L 151,168 L 152,169 L 155,169 L 156,170 L 157,170 L 163,176 L 163,178 L 164,179 L 164,239 L 178,239 L 178,174 L 179,173 L 209,173 L 210,174 L 212,174 L 213,175 L 215,175 L 217,177 L 218,177 L 224,183 L 224,184 L 226,186 L 226,187 L 227,188 L 227,189 L 228,190 L 228,192 L 229,193 L 229,196 L 230,197 L 230,206 L 231,207 L 230,208 L 230,216 L 229,217 L 229,219 L 228,220 L 228,222 L 227,223 L 227,224 L 226,225 L 226,226 L 218,234 L 217,234 L 216,235 L 215,235 L 214,236 L 213,236 L 212,237 L 210,237 L 209,238 L 207,238 L 206,239 L 201,239 L 232,239 L 236,235 L 236,234 L 239,231 L 239,230 L 241,228 L 241,227 L 242,226 L 242,225 L 243,224 L 243,222 L 244,221 L 244,219 L 245,218 L 245,215 L 246,214 L 246,196 L 245,195 L 245,192 L 244,191 L 244,189 L 243,188 L 243,187 L 242,186 L 242,185 L 241,184 L 241,183 L 238,180 L 238,179 L 235,176 L 234,176 L 231,173 L 230,173 L 228,171 L 227,171 L 226,170 L 224,170 L 223,169 L 221,169 L 220,168 L 218,168 L 217,167 L 211,167 L 210,166 Z" fill="white" /></svg>