<?xml version="1.0" standalone="no"?>
<!DOCTYPE svg PUBLIC "-//W3C//DTD SVG 20010904//EN"
 "http://www.w3.org/TR/2001/REC-SVG-20010904/DTD/svg10.dtd">
<svg version="1.0" xmlns="http://www.w3.org/2000/svg"
 width="300.000000pt" height="300.000000pt" viewBox="0 0 300.000000 300.000000"
 preserveAspectRatio="xMidYMid meet">
<metadata>
Created by potrace 1.10, written by Peter Selinger 2001-2011
</metadata>
<g transform="translate(0.000000,300.000000) scale(0.100000,-0.100000)"
fill="#000000" stroke="none">
<path d="M888 2005 c-11 -12 1 -25 21 -25 11 0 29 -9 42 -19 23 -19 24 -25 29
-213 l6 -193 2 191 c2 211 0 219 -59 239 -27 10 3 11 156 10 217 -2 245 -6
300 -44 111 -75 121 -265 20 -367 -13 -13 -19 -24 -12 -24 17 0 74 88 86 135
32 120 -15 231 -124 288 -36 19 -60 21 -250 25 -116 2 -213 1 -217 -3z"/>
<path d="M1068 1760 c-2 -110 0 -200 5 -200 4 0 7 88 7 195 l0 195 100 0 c96
0 100 -1 134 -30 59 -52 84 -169 52 -244 -19 -46 -62 -83 -116 -101 l-45 -15
38 5 c42 4 98 41 125 83 13 20 17 47 17 112 0 72 -4 91 -24 124 -40 63 -70 76
-188 76 l-102 0 -3 -200z"/>
<path d="M1600 1759 c-34 -14 -88 -67 -105 -104 -20 -45 -29 -95 -16 -95 6 0
11 12 11 27 0 71 73 154 152 173 27 7 29 8 8 8 -14 1 -36 -4 -50 -9z"/>
<path d="M1798 1757 l62 -10 0 -71 -1 -71 -14 40 c-17 47 -43 70 -95 86 -68
20 -155 -12 -183 -68 -20 -39 -31 -103 -17 -103 5 0 10 15 10 34 0 39 35 95
70 113 34 17 115 16 150 -2 35 -18 60 -52 60 -82 0 -14 6 -23 15 -23 12 0 15
15 15 79 l0 78 -46 7 c-74 10 -96 4 -26 -7z"/>
<path d="M760 1499 c0 -23 4 -30 15 -26 8 4 17 2 20 -4 12 -18 22 0 17 31 -3
24 -9 30 -28 30 -20 0 -24 -5 -24 -31z"/>
<path d="M870 1500 c0 -20 5 -30 15 -30 10 0 15 10 15 30 0 20 -5 30 -15 30
-10 0 -15 -10 -15 -30z"/>
<path d="M960 1511 c0 -28 3 -37 13 -33 4 1 7 -3 7 -9 0 -8 4 -8 15 1 21 17
13 54 -13 58 -17 3 -22 -2 -22 -17z"/>
<path d="M1060 1500 c0 -30 23 -43 33 -17 4 10 6 10 6 0 1 -7 8 -13 16 -13 10
0 15 10 15 30 0 30 -23 43 -33 18 -4 -10 -6 -10 -6 0 -1 6 -8 12 -16 12 -10 0
-15 -10 -15 -30z"/>
<path d="M1192 1505 c-7 -14 -12 -27 -12 -28 0 -2 15 -3 34 -4 33 -1 33 0 23
28 -14 36 -30 37 -45 4z"/>
<path d="M1300 1499 c0 -17 4 -28 10 -24 5 3 7 12 4 19 -3 8 -1 17 4 20 5 3 8
-6 6 -19 -1 -16 3 -25 12 -25 9 0 14 11 14 30 0 25 -4 30 -25 30 -21 0 -25 -5
-25 -31z"/>
<path d="M1410 1500 c0 -34 16 -39 36 -12 13 16 14 16 8 0 -3 -10 -1 -18 5
-18 6 0 11 14 11 30 0 30 -14 41 -23 18 -4 -10 -6 -10 -6 0 -1 6 -8 12 -16 12
-10 0 -15 -10 -15 -30z"/>
<path d="M1627 1513 c4 -9 2 -14 -3 -10 -6 3 -10 -3 -11 -13 -2 -22 24 -35 42
-20 18 15 6 60 -16 60 -13 0 -17 -5 -12 -17z"/>
<path d="M1720 1500 c0 -16 5 -30 10 -30 6 0 10 14 10 30 0 17 -4 30 -10 30
-5 0 -10 -13 -10 -30z"/>
<path d="M1800 1500 c0 -19 5 -30 14 -30 22 0 30 19 12 26 -9 3 -16 10 -16 16
0 5 5 6 10 3 6 -3 10 -1 10 4 0 6 -7 11 -15 11 -10 0 -15 -10 -15 -30z"/>
<path d="M1845 1520 c3 -5 1 -10 -6 -10 -8 0 -9 -3 0 -13 6 -8 8 -17 4 -20 -3
-4 -1 -7 5 -7 7 0 12 14 12 30 0 17 -5 30 -11 30 -5 0 -7 -4 -4 -10z"/>
<path d="M1934 1514 c4 -9 2 -13 -5 -8 -7 4 -9 -1 -7 -12 2 -12 11 -18 22 -16
12 2 16 -1 10 -9 -4 -8 -3 -10 4 -5 16 10 15 33 0 39 -8 3 -6 6 5 6 28 1 20
21 -9 21 -20 0 -25 -4 -20 -16z"/>
<path d="M2050 1500 c0 -30 14 -41 23 -17 4 10 6 10 6 0 2 -27 16 -11 16 17 0
31 -9 40 -18 18 -4 -10 -6 -10 -6 0 -2 26 -21 10 -21 -18z"/>
<path d="M980 1305 c0 -120 -1 -127 -25 -150 -13 -14 -36 -25 -50 -25 -14 0
-25 -5 -25 -11 0 -6 7 -8 16 -5 9 3 22 6 30 6 8 0 26 11 39 25 24 23 25 30 25
150 l0 125 40 0 40 0 0 -124 c0 -103 3 -127 18 -145 18 -23 82 -46 82 -30 0 5
-10 9 -23 9 -13 0 -33 10 -45 23 -20 21 -22 34 -22 150 l0 127 -50 0 -50 0 0
-125z"/>
<path d="M1276 1376 c27 -30 75 -83 106 -118 l57 -64 -30 -58 c-55 -111 -32
-247 56 -325 41 -36 93 -61 122 -60 10 0 -6 9 -36 21 -146 56 -202 221 -126
371 l28 56 -79 87 c-43 47 -87 97 -97 110 l-19 24 45 0 45 0 158 -171 c216
-234 345 -342 373 -313 5 5 12 32 15 59 5 49 5 49 -4 10 -18 -70 -16 -69 -62
-43 -54 29 -239 207 -370 356 l-99 112 -66 0 -65 0 48 -54z"/>
<path d="M1535 1410 c10 -11 66 -57 123 -103 163 -127 174 -138 203 -202 16
-33 28 -52 29 -42 0 28 -37 93 -75 130 -20 19 -89 77 -156 128 l-120 94 61 3
60 3 88 -68 c150 -117 197 -174 222 -270 l10 -38 -4 43 c-7 72 -59 145 -166
231 -136 109 -139 111 -222 111 -71 0 -71 0 -53 -20z"/>
<path d="M1440 1139 c-28 -53 -37 -143 -20 -194 17 -51 76 -114 128 -137 88
-39 223 -17 282 46 21 23 22 29 10 36 -8 5 -21 10 -29 10 -42 0 -143 72 -243
173 l-107 109 -21 -43z m83 -37 c66 -83 182 -173 262 -206 l59 -24 -48 -30
c-110 -70 -267 -48 -334 45 -29 41 -45 109 -37 162 6 40 33 121 40 121 1 0 28
-31 58 -68z"/>
<path d="M1968 963 c-3 -16 -7 -34 -9 -42 -2 -8 6 -17 21 -22 l25 -7 -27 -1
c-18 -1 -44 -18 -80 -54 -36 -36 -69 -58 -103 -69 -32 -10 -42 -16 -27 -17 35
-2 99 35 145 84 31 31 51 44 76 47 44 4 55 28 13 28 -29 0 -30 1 -25 40 6 45
-2 56 -9 13z"/>
<path d="M1637 743 c18 -2 50 -2 70 0 21 2 7 4 -32 4 -38 0 -55 -2 -38 -4z"/>
</g>
</svg>
